. 
  
http://www.torrenting.com/        :     Greatest Movie Tracker on The Net!!!
 
http://www.Torrenting.com          :     Once & For all ;)


               www . Torrenting . Com 

(((((((((((((= Enjoy No RAR releases =))))))))))))))))))))


...................................NFO:....................................

.Mr Poppers Penguins 2011 CAM READNFO XViD - IMAGiNE


Ripper ...........: IMAGiNE                                      IMDB Rating.......: 5.7/10                             
Video Codec.......: XVID                                         Release Date......: 08/07/11
Audio Codec.......: MP3                                          Theatre Date......: 17/06/11
Audio Bitrate.....: 128                                          Runtime.......: 1h 27mn
Subtitles.........: NIL                                          Language..........: ENGLISH
Resolution......: 720 x 400                                      IMDb URL..........: http://www.imdb.com/title/tt1396218/


[color=red]DETAILS:[/color]

Video
ID                               : 0
Format                           : MPEG-4 Visual
Format profile                   : Advanced Simple@L5
Format settings, BVOP            : 2
Format settings, QPel            : No
Format settings, GMC             : No warppoints
Format settings, Matrix          : Default (MPEG)
Muxing mode                      : Packed bitstream
Codec ID                         : XVID
Codec ID/Hint                    : XviD
Duration                         : 1h 27mn
Bit rate                         : 2 109 Kbps
Width                            : 720 pixels
Height                           : 400 pixels
Display aspect ratio             : 16:9
Frame rate                       : 25.000 fps
Color space                      : YUV
Chroma subsampling               : 4:2:0
Bit depth                        : 8 bits
Scan type                        : Progressive
Compression mode                 : Lossy
Bits/(Pixel*Frame)               : 0.293
Stream size                      : 1.29 GiB (94%)
Writing library                  : XviD 61

Audio
ID                               : 1
Format                           : MPEG Audio
Format version                   : Version 1
Format profile                   : Layer 3
Codec ID                         : 55
Codec ID/Hint                    : MP3
Duration                         : 1h 27mn
Bit rate mode                    : Constant
Bit rate                         : 128 Kbps
Channel(s)                       : 2 channels
Sampling rate                    : 44.1 KHz
Compression mode                 : Lossy
Stream size                      : 79.9 MiB (6%)
Alignment                        : Split accross interleaves
Interleave, duration             : 40 ms (1.00 video frame)



[color=red]SOURCES:[/color]

VIDEO: ........... EPID Thanks :P
AUDIO: ........... FOOKKNOWS Thanks Mate :D

[color=red]NOTES:[/color]

IMAGiNE bringing you another release..........
Mr Poppers Penguins CAM..........
Ok heres our first go at Poppers Penguins.......
Video was decent, slight flicker 
from time to time but nothing major........
Made a script to adjust the colors and darkened it a bit 
and ran a smoother over as it had a bit of noise so.......
Audio is also decent, from the previous cam release 
but was missing the first minute 
so we used the russian to fill it in......
Anyhow a nice cam here folks
Enjoy!

[color=red]SCREENS:[/color]
